<svg xmlns="http://www.w3.org/2000/svg" width="240" height="180" viewBox="0 0 240 180">
  <defs>
    <g id="sprig" stroke-linecap="round" stroke-linejoin="round">
      <path d="M2 92 C16 70 30 50 48 28 C58 16 68 8 78 2" fill="none" stroke="#22472c" stroke-width="3.2"/>
      <path d="M10 80 C2 68 4 55 17 47 C28 58 27 72 14 82Z" fill="#214f2e"/>
      <path d="M11 80 C13 69 14 59 17 49" fill="none" stroke="#bed47b" stroke-width="1"/>
      <path d="M20 66 C26 52 39 47 52 54 C47 69 35 77 22 70Z" fill="#39783f"/>
      <path d="M22 66 C32 61 42 57 50 55" fill="none" stroke="#d0d672" stroke-width="1"/>
      <path d="M30 55 C21 44 23 31 36 23 C47 34 47 49 33 58Z" fill="#2b6636"/>
      <path d="M31 55 C33 45 34 34 36 25" fill="none" stroke="#9ec979" stroke-width="1"/>
      <path d="M39 43 C47 31 60 28 72 37 C65 51 52 56 40 47Z" fill="#1e5b38"/>
      <path d="M41 43 C51 39 62 37 70 37" fill="none" stroke="#bcd176" stroke-width="1"/>
      <path d="M48 32 C39 21 42 9 55 2 C66 14 64 27 51 35Z" fill="#408047"/>
      <path d="M49 32 C52 22 53 12 55 4" fill="none" stroke="#d5ca61" stroke-width="1"/>
      <path d="M57 22 C66 10 80 9 91 19 C83 32 69 36 58 26Z" fill="#2d6f3b"/>
      <path d="M59 22 C70 19 80 18 89 19" fill="none" stroke="#c4d681" stroke-width="1"/>
      <path d="M65 13 C58 3 62 -8 74 -14 C84 -4 82 9 68 16Z" fill="#174a2d"/>
      <path d="M66 13 C69 5 71 -5 74 -12" fill="none" stroke="#99bd73" stroke-width="1"/>
      <path d="M73 6 C84 -3 96 -1 105 9 C96 21 83 22 74 10Z" fill="#356f3c"/>
      <path d="M75 6 C85 5 95 7 103 9" fill="none" stroke="#d0d36f" stroke-width="1"/>
    </g>
  </defs>
  <rect width="240" height="180" fill="#6d8c59"/>
  <g opacity=".18" fill="none" stroke="#183925" stroke-width="1">
    <path d="M-12 42 C30 22 68 46 112 28 S186 18 252 36"/>
    <path d="M-16 132 C34 102 72 132 118 110 S196 88 252 114"/>
    <path d="M20 184 C62 150 104 160 146 136 S206 124 250 146"/>
  </g>
  <g opacity=".96">
    <use href="#sprig" transform="translate(12 84) rotate(-18) scale(.82)"/>
    <use href="#sprig" transform="translate(96 30) rotate(34) scale(.72)"/>
    <use href="#sprig" transform="translate(154 118) rotate(-40) scale(.86)"/>
    <use href="#sprig" transform="translate(210 70) rotate(154) scale(.64)"/>
    <use href="#sprig" transform="translate(46 164) rotate(-126) scale(.58)" opacity=".78"/>
  </g>
  <g opacity=".14" fill="#f2d66b">
    <circle cx="72" cy="68" r="2.2"/>
    <circle cx="188" cy="42" r="1.8"/>
    <circle cx="118" cy="146" r="1.7"/>
  </g>
</svg>
