<svg xmlns="http://www.w3.org/2000/svg" width="260" height="206" viewBox="0 0 260 206">
  <rect width="260" height="206" fill="#66895a"/>
  <g opacity=".27" fill="none" stroke="#183924" stroke-width="1.2">
    <path d="M-16 42 C38 18 76 44 124 26 S206 8 276 36"/>
    <path d="M-12 134 C40 104 86 150 132 120 S214 82 276 112"/>
    <path d="M20 216 C66 166 126 180 172 144 S224 128 282 152"/>
  </g>
  <g stroke-linecap="round" stroke-linejoin="round">
    <g transform="translate(22 22) rotate(-24)">
      <path d="M0 0 C-8 -11 -5 -24 7 -35 C19 -25 22 -10 14 2 C9 8 3 7 0 0Z" fill="#214f2e"/>
      <path d="M1 -1 C5 -10 7 -22 7 -33" fill="none" stroke="#b9cf78" stroke-width="1.14" opacity=".76"/>
    </g>
    <g transform="translate(76 44) rotate(30)">
      <path d="M0 0 C-12 -17 -8 -36 11 -53 C30 -37 35 -14 20 4 C12 13 4 11 0 0Z" fill="#2b6636"/>
      <path d="M1 -2 C7 -16 11 -34 11 -51" fill="none" stroke="#d0d36f" stroke-width="1.45" opacity=".82"/>
    </g>
    <g transform="translate(134 22) rotate(-50)">
      <path d="M0 0 C-7 -10 -4 -21 6 -31 C17 -22 20 -9 13 1 C8 8 3 7 0 0Z" fill="#3a7a3f"/>
      <path d="M1 -1 C4 -9 6 -19 6 -29" fill="none" stroke="#d5ce62" stroke-width="1.05" opacity=".72"/>
    </g>
    <g transform="translate(198 38) rotate(17)">
      <path d="M0 0 C-13 -18 -8 -38 12 -56 C32 -39 37 -15 21 4 C13 14 4 12 0 0Z" fill="#1d5735"/>
      <path d="M1 -2 C7 -17 12 -36 12 -54" fill="none" stroke="#98bf72" stroke-width="1.5" opacity=".77"/>
    </g>
    <g transform="translate(38 96) rotate(48)">
      <path d="M0 0 C-9 -12 -5 -27 8 -39 C21 -27 25 -10 15 2 C9 10 3 8 0 0Z" fill="#18674b"/>
      <path d="M1 -1 C5 -11 8 -25 8 -37" fill="none" stroke="#9ed59b" stroke-width="1.16" opacity=".78"/>
    </g>
    <g transform="translate(96 118) rotate(-15)">
      <path d="M0 0 C-14 -19 -9 -42 13 -61 C35 -42 41 -16 23 5 C14 15 4 13 0 0Z" fill="#264f2c"/>
      <path d="M1 -2 C8 -19 13 -40 13 -59" fill="none" stroke="#c6d47e" stroke-width="1.55" opacity=".84"/>
    </g>
    <g transform="translate(164 92) rotate(62)">
      <path d="M0 0 C-8 -11 -5 -24 7 -35 C19 -25 23 -10 14 2 C9 9 3 8 0 0Z" fill="#408045"/>
      <path d="M1 -1 C5 -10 7 -22 7 -33" fill="none" stroke="#d5c65d" stroke-width="1.08" opacity=".76"/>
    </g>
    <g transform="translate(224 116) rotate(-38)">
      <path d="M0 0 C-11 -15 -7 -32 9 -47 C25 -33 29 -13 17 3 C10 11 3 10 0 0Z" fill="#1e5133"/>
      <path d="M1 -2 C6 -14 9 -30 9 -45" fill="none" stroke="#a5c77a" stroke-width="1.25" opacity=".75"/>
    </g>
    <g transform="translate(18 170) rotate(-8)">
      <path d="M0 0 C-8 -11 -5 -24 7 -35 C19 -25 22 -10 14 2 C8 8 3 7 0 0Z" fill="#2d6f3b"/>
      <path d="M1 -1 C5 -10 7 -22 7 -33" fill="none" stroke="#cad474" stroke-width="1.08" opacity=".72"/>
    </g>
    <g transform="translate(82 184) rotate(33)">
      <path d="M0 0 C-12 -16 -8 -35 10 -51 C28 -35 33 -14 19 3 C12 12 4 11 0 0Z" fill="#22542f"/>
      <path d="M1 -2 C7 -15 10 -33 10 -49" fill="none" stroke="#91bb73" stroke-width="1.42" opacity=".78"/>
    </g>
    <g transform="translate(152 168) rotate(-32)">
      <path d="M0 0 C-10 -13 -6 -29 8 -42 C22 -30 26 -12 16 2 C10 10 3 9 0 0Z" fill="#37783f"/>
      <path d="M1 -2 C5 -12 8 -27 8 -40" fill="none" stroke="#d0d76f" stroke-width="1.2" opacity=".78"/>
    </g>
    <g transform="translate(224 188) rotate(14)">
      <path d="M0 0 C-13 -18 -8 -38 12 -56 C32 -39 37 -15 21 4 C13 14 4 12 0 0Z" fill="#174a2d"/>
      <path d="M1 -2 C7 -17 12 -36 12 -54" fill="none" stroke="#9ac078" stroke-width="1.5" opacity=".72"/>
    </g>
  </g>
</svg>
