<svg xmlns="http://www.w3.org/2000/svg" width="180" height="132" viewBox="0 0 180 132">
  <defs>
    <g id="sprig-fine" stroke-linecap="round" stroke-linejoin="round">
      <path d="M1 72 C13 55 25 39 39 22 C48 12 57 5 66 0" fill="none" stroke="#22462d" stroke-width="2.2"/>
      <path d="M8 62 C2 53 4 43 14 37 C23 45 22 56 11 64Z" fill="#214f2e"/>
      <path d="M9 62 C11 54 12 45 14 38" fill="none" stroke="#c4d57b" stroke-width=".75"/>
      <path d="M17 51 C23 41 33 38 43 44 C38 55 28 60 18 54Z" fill="#3a7a3f"/>
      <path d="M19 51 C26 47 34 45 42 44" fill="none" stroke="#d4d26b" stroke-width=".75"/>
      <path d="M25 43 C19 34 22 24 31 18 C40 27 39 38 28 45Z" fill="#2b6636"/>
      <path d="M26 43 C28 35 29 26 31 19" fill="none" stroke="#9ec979" stroke-width=".75"/>
      <path d="M33 33 C40 24 51 22 60 30 C54 40 43 43 34 36Z" fill="#1e5b38"/>
      <path d="M35 33 C43 31 52 30 59 30" fill="none" stroke="#bed47b" stroke-width=".75"/>
      <path d="M41 25 C35 16 38 7 48 2 C56 11 54 21 44 27Z" fill="#408047"/>
      <path d="M42 25 C44 17 46 9 48 3" fill="none" stroke="#d5ca61" stroke-width=".75"/>
      <path d="M49 17 C56 9 67 9 75 17 C68 26 57 28 50 20Z" fill="#2d6f3b"/>
      <path d="M51 17 C59 16 67 16 74 17" fill="none" stroke="#c7d981" stroke-width=".75"/>
      <path d="M56 10 C51 2 55 -6 64 -10 C72 -2 69 8 58 12Z" fill="#174a2d"/>
      <path d="M57 10 C60 4 62 -4 64 -9" fill="none" stroke="#9ac078" stroke-width=".75"/>
      <path d="M63 5 C72 -2 82 0 88 8 C80 16 70 16 64 7Z" fill="#356f3c"/>
      <path d="M64 5 C73 5 81 6 87 8" fill="none" stroke="#d0d36f" stroke-width=".75"/>
    </g>
  </defs>
  <rect width="180" height="132" fill="#78925f"/>
  <g opacity=".16" fill="none" stroke="#173622" stroke-width=".8">
    <path d="M-8 26 C22 12 48 26 80 18 S134 10 188 24"/>
    <path d="M-8 92 C30 70 58 94 92 76 S142 62 188 80"/>
    <path d="M12 136 C44 110 76 116 108 96 S150 90 186 104"/>
  </g>
  <g opacity=".95">
    <use href="#sprig-fine" transform="translate(8 66) rotate(-14) scale(.72)"/>
    <use href="#sprig-fine" transform="translate(54 30) rotate(36) scale(.62)"/>
    <use href="#sprig-fine" transform="translate(102 90) rotate(-42) scale(.7)"/>
    <use href="#sprig-fine" transform="translate(160 50) rotate(150) scale(.58)"/>
    <use href="#sprig-fine" transform="translate(34 126) rotate(-128) scale(.56)" opacity=".76"/>
    <use href="#sprig-fine" transform="translate(132 124) rotate(-112) scale(.5)" opacity=".72"/>
  </g>
  <g opacity=".12" fill="#e8cb62">
    <circle cx="76" cy="58" r="1.5"/>
    <circle cx="146" cy="28" r="1.3"/>
    <circle cx="30" cy="102" r="1.2"/>
  </g>
</svg>
