<svg xmlns="http://www.w3.org/2000/svg" width="220" height="180" viewBox="0 0 220 180">
  <rect width="220" height="180" fill="#6f8d58"/>
  <g opacity=".24" fill="none" stroke="#1f3f28" stroke-width="1.1">
    <path d="M0 30 C44 18 82 32 120 20 S182 8 220 24"/>
    <path d="M-10 120 C32 102 74 132 116 110 S176 84 230 108"/>
    <path d="M22 178 C58 144 102 150 144 132 S194 112 228 128"/>
  </g>
  <g stroke-linecap="round" stroke-linejoin="round">
    <g transform="translate(20 22) rotate(-26)">
      <path d="M0 0 C-8 -11 -5 -24 6 -35 C18 -25 22 -11 14 1 C9 8 3 8 0 0Z" fill="#214f2e"/>
      <path d="M1 -1 C5 -10 7 -21 6 -33" fill="none" stroke="#a8c47b" stroke-width="1.2" opacity=".75"/>
    </g>
    <g transform="translate(62 38) rotate(31)">
      <path d="M0 0 C-10 -14 -6 -29 8 -42 C22 -29 26 -12 16 2 C10 10 3 9 0 0Z" fill="#2c6c3b"/>
      <path d="M1 -2 C5 -12 8 -27 8 -40" fill="none" stroke="#c7d77f" stroke-width="1.25" opacity=".82"/>
    </g>
    <g transform="translate(109 24) rotate(-48)">
      <path d="M0 0 C-7 -10 -4 -21 6 -31 C17 -22 20 -9 13 1 C8 8 3 7 0 0Z" fill="#3a7a3f"/>
      <path d="M1 -1 C4 -9 6 -19 6 -29" fill="none" stroke="#d5ce62" stroke-width="1.05" opacity=".72"/>
    </g>
    <g transform="translate(156 32) rotate(18)">
      <path d="M0 0 C-9 -12 -5 -26 7 -38 C20 -27 24 -11 15 2 C10 9 3 8 0 0Z" fill="#1f5e39"/>
      <path d="M1 -1 C5 -11 7 -24 7 -36" fill="none" stroke="#94be72" stroke-width="1.18" opacity=".76"/>
    </g>
    <g transform="translate(202 20) rotate(-22)">
      <path d="M0 0 C-7 -10 -4 -21 6 -31 C17 -22 20 -9 13 1 C8 7 3 7 0 0Z" fill="#345f2e"/>
      <path d="M1 -1 C4 -9 6 -19 6 -29" fill="none" stroke="#bdd479" stroke-width="1.05" opacity=".68"/>
    </g>
    <g transform="translate(35 78) rotate(46)">
      <path d="M0 0 C-9 -12 -5 -27 8 -39 C21 -27 25 -10 15 2 C9 10 3 8 0 0Z" fill="#18674b"/>
      <path d="M1 -1 C5 -11 8 -25 8 -37" fill="none" stroke="#9ed59b" stroke-width="1.16" opacity=".78"/>
    </g>
    <g transform="translate(86 92) rotate(-17)">
      <path d="M0 0 C-11 -15 -7 -32 9 -47 C25 -33 29 -13 17 3 C10 11 3 10 0 0Z" fill="#275b30"/>
      <path d="M1 -2 C6 -14 9 -30 9 -45" fill="none" stroke="#c4d783" stroke-width="1.25" opacity=".82"/>
    </g>
    <g transform="translate(137 78) rotate(62)">
      <path d="M0 0 C-8 -11 -5 -24 7 -35 C19 -25 23 -10 14 2 C9 9 3 8 0 0Z" fill="#408045"/>
      <path d="M1 -1 C5 -10 7 -22 7 -33" fill="none" stroke="#d5c65d" stroke-width="1.08" opacity=".76"/>
    </g>
    <g transform="translate(184 96) rotate(-40)">
      <path d="M0 0 C-10 -14 -6 -30 8 -43 C23 -30 27 -12 16 3 C10 10 3 9 0 0Z" fill="#1e5133"/>
      <path d="M1 -2 C5 -13 8 -28 8 -41" fill="none" stroke="#a5c77a" stroke-width="1.22" opacity=".75"/>
    </g>
    <g transform="translate(14 138) rotate(-8)">
      <path d="M0 0 C-8 -11 -5 -24 7 -35 C19 -25 22 -10 14 2 C8 8 3 7 0 0Z" fill="#2d6f3b"/>
      <path d="M1 -1 C5 -10 7 -22 7 -33" fill="none" stroke="#cad474" stroke-width="1.08" opacity=".72"/>
    </g>
    <g transform="translate(66 152) rotate(33)">
      <path d="M0 0 C-9 -12 -5 -26 7 -38 C20 -27 24 -11 15 2 C9 9 3 8 0 0Z" fill="#22542f"/>
      <path d="M1 -1 C5 -11 7 -24 7 -36" fill="none" stroke="#91bb73" stroke-width="1.16" opacity=".76"/>
    </g>
    <g transform="translate(122 142) rotate(-34)">
      <path d="M0 0 C-10 -13 -6 -29 8 -42 C22 -30 26 -12 16 2 C10 10 3 9 0 0Z" fill="#37783f"/>
      <path d="M1 -2 C5 -12 8 -27 8 -40" fill="none" stroke="#d0d76f" stroke-width="1.2" opacity=".78"/>
    </g>
    <g transform="translate(180 154) rotate(14)">
      <path d="M0 0 C-11 -15 -7 -32 9 -47 C25 -33 29 -13 17 3 C10 11 3 10 0 0Z" fill="#174a2d"/>
      <path d="M1 -2 C6 -14 9 -30 9 -45" fill="none" stroke="#9ac078" stroke-width="1.25" opacity=".72"/>
    </g>
  </g>
</svg>
