<svg xmlns="http://www.w3.org/2000/svg" width="260" height="206" viewBox="0 0 260 206">
  <defs>
    <g id="sprig-mixed" stroke-linecap="round" stroke-linejoin="round">
      <path d="M2 112 C19 84 38 58 62 30 C74 16 88 7 102 1" fill="none" stroke="#1e4129" stroke-width="4"/>
      <path d="M12 96 C1 82 4 65 20 55 C35 68 33 86 16 100Z" fill="#214f2e"/>
      <path d="M13 96 C16 82 17 68 20 57" fill="none" stroke="#bdd47a" stroke-width="1.3"/>
      <path d="M26 78 C36 60 54 55 70 66 C60 84 42 91 28 82Z" fill="#3b7d42"/>
      <path d="M28 78 C42 71 56 67 68 66" fill="none" stroke="#d2d875" stroke-width="1.3"/>
      <path d="M39 66 C28 51 32 34 48 24 C62 39 61 57 43 70Z" fill="#2b6636"/>
      <path d="M40 66 C44 52 45 38 48 26" fill="none" stroke="#9ec979" stroke-width="1.25"/>
      <path d="M52 50 C64 34 82 32 96 45 C84 63 66 67 54 54Z" fill="#1e5b38"/>
      <path d="M54 50 C68 45 82 44 94 45" fill="none" stroke="#bed47b" stroke-width="1.25"/>
      <path d="M64 36 C54 21 59 6 76 -2 C88 13 84 30 68 40Z" fill="#408047"/>
      <path d="M65 36 C69 22 72 9 76 0" fill="none" stroke="#d5ca61" stroke-width="1.25"/>
      <path d="M78 24 C93 10 110 13 122 28 C108 43 91 43 80 29Z" fill="#2d6f3b"/>
      <path d="M80 24 C94 23 108 25 120 28" fill="none" stroke="#c7d981" stroke-width="1.25"/>
      <path d="M90 14 C81 2 88 -12 104 -18 C116 -5 112 10 94 18Z" fill="#174a2d"/>
      <path d="M91 14 C96 4 100 -9 104 -16" fill="none" stroke="#9ac078" stroke-width="1.25"/>
      <path d="M100 7 C115 -6 132 -2 143 13 C128 28 112 27 102 12Z" fill="#356f3c"/>
      <path d="M102 7 C117 7 131 10 141 13" fill="none" stroke="#d0d36f" stroke-width="1.25"/>
    </g>
  </defs>
  <rect width="260" height="206" fill="#66895a"/>
  <g opacity=".22" fill="none" stroke="#163621" stroke-width="1.1">
    <path d="M-16 44 C38 18 78 44 126 26 S208 10 276 36"/>
    <path d="M-10 134 C40 102 88 150 134 118 S214 84 276 112"/>
    <path d="M18 216 C66 166 124 180 174 144 S224 128 282 152"/>
  </g>
  <g opacity=".96">
    <use href="#sprig-mixed" transform="translate(16 112) rotate(-16) scale(.76)"/>
    <use href="#sprig-mixed" transform="translate(122 42) rotate(38) scale(.58)"/>
    <use href="#sprig-mixed" transform="translate(188 176) rotate(-48) scale(.72)"/>
    <use href="#sprig-mixed" transform="translate(240 92) rotate(150) scale(.54)"/>
    <use href="#sprig-mixed" transform="translate(66 204) rotate(-130) scale(.46)" opacity=".78"/>
  </g>
  <g opacity=".13" fill="#efcc5c">
    <circle cx="86" cy="82" r="2.4"/>
    <circle cx="204" cy="52" r="1.8"/>
    <circle cx="146" cy="160" r="1.9"/>
  </g>
</svg>
