<svg xmlns="http://www.w3.org/2000/svg" width="168" height="126" viewBox="0 0 168 126">
  <rect width="168" height="126" fill="#789260"/>
  <g opacity=".18" fill="none" stroke="#21452b" stroke-width=".9">
    <path d="M-8 24 C22 10 48 28 78 18 S132 8 176 24"/>
    <path d="M-10 82 C28 64 54 90 86 74 S132 56 176 76"/>
    <path d="M10 126 C42 100 76 112 104 92 S142 86 176 98"/>
  </g>
  <g stroke-linecap="round" stroke-linejoin="round">
    <g transform="translate(16 14) rotate(-28)">
      <path d="M0 0 C-6 -8 -3 -18 5 -26 C14 -19 17 -7 10 1 C6 6 2 5 0 0Z" fill="#214f2e"/>
      <path d="M1 -1 C4 -8 5 -17 5 -25" fill="none" stroke="#c6d681" stroke-width=".9" opacity=".78"/>
    </g>
    <g transform="translate(46 22) rotate(32)">
      <path d="M0 0 C-6 -9 -4 -19 6 -28 C15 -20 18 -8 11 1 C7 6 2 6 0 0Z" fill="#2d6f3b"/>
      <path d="M1 -1 C4 -8 6 -18 6 -27" fill="none" stroke="#d3d56d" stroke-width=".92" opacity=".82"/>
    </g>
    <g transform="translate(82 15) rotate(-45)">
      <path d="M0 0 C-5 -8 -3 -17 5 -25 C14 -18 16 -7 10 1 C6 5 2 5 0 0Z" fill="#326633"/>
      <path d="M1 -1 C3 -7 5 -16 5 -24" fill="none" stroke="#bfd071" stroke-width=".86" opacity=".76"/>
    </g>
    <g transform="translate(116 25) rotate(22)">
      <path d="M0 0 C-6 -8 -3 -18 5 -26 C14 -19 17 -7 10 1 C6 6 2 5 0 0Z" fill="#1f5e39"/>
      <path d="M1 -1 C4 -8 5 -17 5 -25" fill="none" stroke="#9ed59b" stroke-width=".9" opacity=".72"/>
    </g>
    <g transform="translate(150 14) rotate(-22)">
      <path d="M0 0 C-5 -8 -3 -17 5 -25 C13 -18 16 -7 10 1 C6 5 2 5 0 0Z" fill="#335f2f"/>
      <path d="M1 -1 C3 -7 5 -16 5 -24" fill="none" stroke="#d0d36e" stroke-width=".86" opacity=".72"/>
    </g>
    <g transform="translate(28 56) rotate(50)">
      <path d="M0 0 C-7 -9 -4 -20 6 -29 C16 -20 19 -7 11 2 C7 7 2 6 0 0Z" fill="#17674a"/>
      <path d="M1 -1 C4 -8 6 -19 6 -28" fill="none" stroke="#9ed59b" stroke-width=".92" opacity=".78"/>
    </g>
    <g transform="translate(64 64) rotate(-15)">
      <path d="M0 0 C-7 -10 -4 -22 7 -32 C18 -22 21 -9 13 2 C8 7 2 7 0 0Z" fill="#275b30"/>
      <path d="M1 -1 C4 -10 7 -21 7 -31" fill="none" stroke="#c9d37a" stroke-width=".96" opacity=".82"/>
    </g>
    <g transform="translate(104 54) rotate(60)">
      <path d="M0 0 C-6 -8 -3 -18 5 -26 C14 -19 17 -7 10 1 C6 6 2 5 0 0Z" fill="#408045"/>
      <path d="M1 -1 C4 -8 5 -17 5 -25" fill="none" stroke="#d2c95f" stroke-width=".9" opacity=".76"/>
    </g>
    <g transform="translate(142 70) rotate(-40)">
      <path d="M0 0 C-7 -10 -4 -21 7 -31 C18 -22 21 -8 13 2 C8 7 2 6 0 0Z" fill="#1e5133"/>
      <path d="M1 -1 C4 -9 7 -20 7 -30" fill="none" stroke="#a9ca7c" stroke-width=".94" opacity=".74"/>
    </g>
    <g transform="translate(14 102) rotate(-8)">
      <path d="M0 0 C-6 -8 -3 -18 5 -26 C14 -19 17 -7 10 1 C6 6 2 5 0 0Z" fill="#2d6f3b"/>
      <path d="M1 -1 C4 -8 5 -17 5 -25" fill="none" stroke="#cad474" stroke-width=".9" opacity=".72"/>
    </g>
    <g transform="translate(50 112) rotate(36)">
      <path d="M0 0 C-6 -8 -3 -18 5 -26 C14 -19 17 -7 10 1 C6 6 2 5 0 0Z" fill="#22542f"/>
      <path d="M1 -1 C4 -8 5 -17 5 -25" fill="none" stroke="#91bb73" stroke-width=".9" opacity=".76"/>
    </g>
    <g transform="translate(92 102) rotate(-34)">
      <path d="M0 0 C-7 -9 -4 -20 6 -29 C16 -20 19 -8 12 2 C7 7 2 6 0 0Z" fill="#37783f"/>
      <path d="M1 -1 C4 -9 6 -19 6 -28" fill="none" stroke="#d0d76f" stroke-width=".92" opacity=".78"/>
    </g>
    <g transform="translate(138 114) rotate(14)">
      <path d="M0 0 C-7 -10 -4 -22 7 -32 C18 -22 21 -9 13 2 C8 7 2 7 0 0Z" fill="#174a2d"/>
      <path d="M1 -1 C4 -10 7 -21 7 -31" fill="none" stroke="#9ac078" stroke-width=".96" opacity=".72"/>
    </g>
  </g>
</svg>
